<?xml version="1.0" standalone="no"?>
<!DOCTYPE svg PUBLIC "-//W3C//DTD SVG 20010904//EN"
 "http://www.w3.org/TR/2001/REC-SVG-20010904/DTD/svg10.dtd">
<svg version="1.0" xmlns="http://www.w3.org/2000/svg"
 width="512.000000pt" height="512.000000pt" viewBox="0 0 512.000000 512.000000"
 preserveAspectRatio="xMidYMid meet">
<metadata>
Created by potrace 1.14, written by Peter Selinger 2001-2017
</metadata>
<g transform="translate(0.000000,512.000000) scale(0.100000,-0.100000)"
fill="#000000" stroke="none">
<path d="M1625 4945 c-230 -36 -421 -110 -611 -237 -220 -146 -347 -312 -407
-527 -16 -61 -20 -104 -20 -216 0 -152 -8 -113 112 -532 25 -86 25 -93 7 -93
-8 0 -37 -21 -65 -46 -75 -67 -96 -149 -66 -251 18 -61 80 -126 139 -146 23
-8 75 -15 116 -16 83 -3 90 -5 90 -29 1 -32 67 -179 115 -253 83 -129 273
-298 379 -339 l27 -10 -3 -126 -3 -126 -160 -50 c-717 -222 -790 -247 -855
-289 -83 -54 -153 -130 -194 -213 -65 -128 -64 -124 -65 -733 l-1 -553 1680 0
1680 0 0 319 0 320 71 -24 c104 -36 171 -47 304 -50 185 -5 324 25 490 107
274 136 467 379 547 689 16 63 21 116 22 214 1 160 -6 218 -40 326 -110 351
-377 609 -729 706 -90 24 -117 27 -260 28 -170 0 -242 -11 -368 -59 -197 -74
-387 -224 -500 -394 -92 -137 -156 -315 -172 -472 -4 -36 -8 -66 -8 -67 -2 -1
-225 68 -559 174 l-78 24 0 122 1 122 87 50 c63 36 114 78 187 150 113 113
181 218 226 349 l28 81 88 6 c48 3 104 12 123 21 43 19 93 69 117 117 24 47
24 153 1 201 -21 45 -85 109 -115 116 -25 7 -28 17 -14 60 5 16 19 61 30 99
61 214 72 254 77 276 3 13 8 38 12 54 3 17 6 86 6 155 0 143 -22 236 -81 355
-62 125 -121 198 -238 294 -188 153 -415 259 -660 306 -112 22 -378 27 -490
10z"/>
</g>
</svg>
